# xmcd
#
# Track frame offsets:
#	150
#	24165
#	47037
#	65250
#	81680
#	100300
#	114702
#	133270
#	152647
#	166682
#	179920
#	199745
#	218025
#	234807
#	249040
#	269460
#	285315
#
# Disc length: 3978 seconds
#
# Revision: 21
# Processed by: cddbd v1.5.2PL0 Copyright (c) Steve Scherf et al.
# Submitted via: EZCDAudioConverter 7.0.6.1
#
DISCID=e90f8811
DTITLE=Tom Petty and The Heartbreakers - Anthology: Through The Years 2/2
DYEAR=2000
DGENRE=
TTITLE0=Rebels
TTITLE1=Don't Come Around Here No More
TTITLE2=The Best Of Everything
TTITLE3=So You Want To Be A Rock 'N' Roll Star
TTITLE4=Jammin' Me
TTITLE5=It'll All Work Out
TTITLE6=Love Is A Long Road
TTITLE7=Free Fallin'
TTITLE8=Yer So Bad
TTITLE9=I Won't Back Down
TTITLE10=Runnin' Down A Dream
TTITLE11=Learning To Fly
TTITLE12=Into The Great Wide Open
TTITLE13=Two Gunslingers
TTITLE14=Mary Jane's Last Dance
TTITLE15=Waiting For Tonight
TTITLE16=Surrender
EXTD=
EXTT0=
EXTT1=
EXTT2=
EXTT3=
EXTT4=
EXTT5=
EXTT6=
EXTT7=
EXTT8=
EXTT9=
EXTT10=
EXTT11=
EXTT12=
EXTT13=
EXTT14=
EXTT15=
EXTT16=
PLAYORDER=
